<svg xmlns="http://www.w3.org/2000/svg" xmlns:xlink="http://www.w3.org/1999/xlink" width="500" zoomAndPan="magnify" viewBox="0 0 375 374.999991" height="500" preserveAspectRatio="xMidYMid meet" version="1.0"><defs><g/></defs><path fill="rgb(49.409485%, 85.099792%, 34.118652%)" d="M 187.5 0 C 83.945312 0 0 83.945312 0 187.5 C 0 291.054688 83.945312 375 187.5 375 C 291.054688 375 375 291.054688 375 187.5 C 375 83.945312 291.054688 0 187.5 0 " fill-opacity="1" fill-rule="nonzero"/><g fill="rgb(0%, 0%, 0%)" fill-opacity="1"><g transform="translate(31.480113, 289.125597)"><g><path d="M 145.625 -238.625 L 149.296875 -238.625 C 155.828125 -238.625 160.722656 -230.0625 163.984375 -212.9375 L 163.984375 -183.5625 L 186.015625 -186.015625 C 194.171875 -183.566406 198.25 -180.707031 198.25 -177.4375 C 198.25 -173.363281 186.828125 -168.472656 163.984375 -162.765625 L 161.53125 -157.859375 L 161.53125 -150.515625 C 177.03125 -141.546875 184.78125 -135.835938 184.78125 -133.390625 L 184.78125 -127.265625 C 159.488281 -123.191406 141.539062 -121.15625 130.9375 -121.15625 L 124.828125 -130.9375 L 124.828125 -137.0625 C 137.054688 -137.0625 143.171875 -143.179688 143.171875 -155.421875 C 143.171875 -157.867188 133.789062 -160.316406 115.03125 -162.765625 L 111.359375 -168.875 C 111.359375 -172.132812 122.78125 -176.210938 145.625 -181.109375 C 145.625 -185.191406 146.441406 -192.128906 148.078125 -201.921875 C 146.441406 -213.335938 145.625 -225.570312 145.625 -238.625 Z M 70.984375 -227.625 C 73.429688 -227.625 77.507812 -221.503906 83.21875 -209.265625 L 80.765625 -204.359375 C 80.765625 -163.566406 85.660156 -143.171875 95.453125 -143.171875 C 104.429688 -141.546875 108.921875 -138.285156 108.921875 -133.390625 L 108.921875 -130.9375 C 108.921875 -126.863281 100.351562 -122.785156 83.21875 -118.703125 L 83.21875 -100.34375 C 83.21875 -93 90.148438 -82.394531 104.015625 -68.53125 L 104.015625 -61.1875 L 99.125 -61.1875 C 92.59375 -66.894531 87.289062 -69.75 83.21875 -69.75 C 83.21875 -49.351562 84.847656 -21.613281 88.109375 13.46875 C 85.660156 25.695312 82.804688 31.8125 79.546875 31.8125 L 75.875 31.8125 L 64.859375 22.03125 L 67.3125 -11.015625 L 67.3125 -51.390625 L 64.859375 -69.75 L 62.40625 -69.75 C 62.40625 -59.144531 47.722656 -44.460938 18.359375 -25.703125 L 14.6875 -33.046875 C 46.5 -64.046875 62.40625 -92.597656 62.40625 -118.703125 L 61.1875 -118.703125 C 58.738281 -118.703125 50.582031 -116.660156 36.71875 -112.578125 C 29.375 -115.847656 25.703125 -119.519531 25.703125 -123.59375 C 51.804688 -131.757812 64.859375 -138.695312 64.859375 -144.40625 L 67.3125 -160.3125 C 67.3125 -166.019531 66.492188 -172.546875 64.859375 -179.890625 C 66.492188 -189.679688 67.3125 -197.835938 67.3125 -204.359375 L 64.859375 -223.953125 Z M 253.3125 -208.03125 L 259.4375 -208.03125 C 263.519531 -208.03125 266.78125 -200.28125 269.21875 -184.78125 C 266.78125 -172.550781 265.5625 -162.765625 265.5625 -155.421875 L 265.5625 -143.171875 L 291.25 -145.625 L 293.703125 -145.625 C 303.492188 -145.625 310.835938 -140.726562 315.734375 -130.9375 L 315.734375 -123.59375 L 296.15625 -123.59375 C 272.488281 -123.59375 260.65625 -120.738281 260.65625 -115.03125 C 272.894531 -62.820312 279.015625 -13.460938 279.015625 33.046875 C 277.378906 36.304688 276.5625 39.566406 276.5625 42.828125 C 253.71875 36.304688 226.796875 20.804688 195.796875 -3.671875 L 201.921875 -3.671875 C 205.992188 -3.671875 224.347656 4.484375 256.984375 20.796875 L 260.65625 18.359375 C 260.65625 -31.410156 255.757812 -56.296875 245.96875 -56.296875 C 221.5 -65.265625 207.222656 -73.828125 203.140625 -81.984375 L 206.8125 -88.109375 C 213.34375 -88.109375 226.804688 -84.4375 247.203125 -77.09375 L 247.203125 -81.984375 C 247.203125 -104.828125 245.160156 -116.25 241.078125 -116.25 L 238.625 -116.25 C 221.5 -112.175781 211.710938 -110.140625 209.265625 -110.140625 L 206.8125 -110.140625 C 204.363281 -110.140625 201.101562 -113.8125 197.03125 -121.15625 C 230.476562 -130.945312 247.203125 -138.695312 247.203125 -144.40625 C 247.203125 -149.300781 249.238281 -170.507812 253.3125 -208.03125 Z M 189.6875 -116.25 L 195.796875 -106.46875 C 195.796875 -99.9375 190.492188 -88.109375 179.890625 -70.984375 L 179.890625 -66.078125 C 183.148438 -59.554688 186.003906 -56.296875 188.453125 -56.296875 C 184.378906 -47.316406 182.34375 -40.789062 182.34375 -36.71875 C 184.789062 -36.71875 188.460938 -32.632812 193.359375 -24.46875 C 175.410156 -9.789062 150.523438 3.257812 118.703125 14.6875 C 107.285156 10.601562 101.578125 6.523438 101.578125 2.453125 L 101.578125 -1.21875 C 104.835938 -1.21875 115.035156 -4.484375 132.171875 -11.015625 C 119.929688 -28.148438 113.8125 -39.570312 113.8125 -45.28125 L 121.15625 -45.28125 C 132.570312 -37.125 138.28125 -27.738281 138.28125 -17.125 L 139.515625 -17.125 C 153.378906 -17.125 163.164062 -30.992188 168.875 -58.734375 L 167.65625 -58.734375 C 166.019531 -58.734375 156.640625 -56.695312 139.515625 -52.625 L 133.390625 -52.625 C 117.078125 -66.488281 108.921875 -84.84375 108.921875 -107.6875 L 112.578125 -107.6875 C 156.640625 -113.394531 182.34375 -116.25 189.6875 -116.25 Z M 129.71875 -79.546875 C 131.351562 -75.460938 132.171875 -73.015625 132.171875 -72.203125 L 141.953125 -72.203125 C 161.535156 -77.910156 171.328125 -83.617188 171.328125 -89.328125 L 171.328125 -99.125 C 143.585938 -99.125 129.71875 -92.597656 129.71875 -79.546875 Z M 129.71875 -79.546875 "/></g></g></g></svg>